<svg width="161" height="23" viewBox="0 0 161 23" fill="none" xmlns="http://www.w3.org/2000/svg">
<g clip-path="url(#clip0_1_682)">
<path d="M29.36 18.016L31.984 18L34.176 10.048L36.272 18H38.912L42.032 6.832H39.616L37.632 15.456L35.488 6.832H32.992L30.72 15.504L28.752 6.832H26.352L29.36 18.016ZM42.9186 13.536C42.9186 16.304 44.7106 18.144 46.9506 18.144C48.3586 18.144 49.3666 17.472 49.8946 16.704V18H52.1506V9.136H49.8946V10.4C49.3666 9.664 48.3906 8.992 46.9666 8.992C44.7106 8.992 42.9186 10.768 42.9186 13.536ZM49.8946 13.568C49.8946 15.248 48.7746 16.176 47.5426 16.176C46.3426 16.176 45.2066 15.216 45.2066 13.536C45.2066 11.856 46.3426 10.96 47.5426 10.96C48.7746 10.96 49.8946 11.888 49.8946 13.568ZM54.6904 15.248C54.6904 17.28 55.8264 18 57.5224 18H58.9304V16.112H57.8904C57.1864 16.112 56.9464 15.856 56.9464 15.264V10.976H58.9304V9.136H56.9464V6.944H54.6904V9.136H53.6344V10.976H54.6904V15.248ZM59.9655 13.568C59.9655 16.352 61.7895 18.144 64.3495 18.144C66.5575 18.144 68.0455 16.896 68.5255 15.008H66.1095C65.8375 15.808 65.2615 16.224 64.3335 16.224C63.0855 16.224 62.2535 15.296 62.2535 13.568C62.2535 11.84 63.0855 10.896 64.3335 10.896C65.2615 10.896 65.8535 11.376 66.1095 12.128H68.5255C68.0455 10.144 66.5575 8.992 64.3495 8.992C61.7895 8.992 59.9655 10.784 59.9655 13.568ZM70.1665 18H72.4065V13.104C72.4065 11.68 73.1905 10.912 74.4065 10.912C75.5905 10.912 76.3745 11.68 76.3745 13.104V18H78.6145V12.8C78.6145 10.352 77.1585 9.008 75.1585 9.008C73.9745 9.008 72.9825 9.488 72.4065 10.24V6.16H70.1665V18ZM84.9091 15.248C84.9091 17.28 86.0451 18 87.7411 18H89.1491V16.112H88.1091C87.4051 16.112 87.1651 15.856 87.1651 15.264V10.976H89.1491V9.136H87.1651V6.944H84.9091V9.136H83.8531V10.976H84.9091V15.248ZM90.7603 18H93.0003V13.104C93.0003 11.68 93.7843 10.912 95.0003 10.912C96.1843 10.912 96.9683 11.68 96.9683 13.104V18H99.2083V12.8C99.2083 10.352 97.7523 9.008 95.7523 9.008C94.5683 9.008 93.5763 9.488 93.0003 10.24V6.16H90.7603V18ZM105.146 10.832C106.298 10.832 107.226 11.568 107.258 12.736H103.05C103.226 11.52 104.074 10.832 105.146 10.832ZM109.354 15.216H106.938C106.65 15.808 106.122 16.288 105.162 16.288C104.042 16.288 103.146 15.552 103.034 14.24H109.514C109.562 13.952 109.578 13.664 109.578 13.376C109.578 10.736 107.77 8.992 105.21 8.992C102.586 8.992 100.762 10.768 100.762 13.568C100.762 16.352 102.634 18.144 105.21 18.144C107.402 18.144 108.874 16.848 109.354 15.216ZM119.618 15.712L116.546 6.832H114.146L118.242 18H120.962L125.058 6.832H122.674L119.618 15.712ZM126.401 18H128.641V9.136H126.401V18ZM127.537 8.08C128.321 8.08 128.913 7.504 128.913 6.768C128.913 6.032 128.321 5.456 127.537 5.456C126.737 5.456 126.161 6.032 126.161 6.768C126.161 7.504 126.737 8.08 127.537 8.08ZM130.278 13.536C130.278 16.304 132.07 18.144 134.326 18.144C135.718 18.144 136.71 17.504 137.238 16.688V18H139.51V6.16H137.238V10.368C136.63 9.536 135.51 8.992 134.342 8.992C132.07 8.992 130.278 10.768 130.278 13.536ZM137.254 13.568C137.254 15.248 136.134 16.176 134.902 16.176C133.702 16.176 132.566 15.216 132.566 13.536C132.566 11.856 133.702 10.96 134.902 10.96C136.134 10.96 137.254 11.888 137.254 13.568ZM145.506 10.832C146.658 10.832 147.586 11.568 147.618 12.736H143.41C143.586 11.52 144.434 10.832 145.506 10.832ZM149.714 15.216H147.298C147.01 15.808 146.482 16.288 145.522 16.288C144.402 16.288 143.506 15.552 143.394 14.24H149.874C149.922 13.952 149.938 13.664 149.938 13.376C149.938 10.736 148.13 8.992 145.57 8.992C142.946 8.992 141.122 10.768 141.122 13.568C141.122 16.352 142.994 18.144 145.57 18.144C147.762 18.144 149.234 16.848 149.714 15.216ZM160.133 13.568C160.133 10.768 158.133 8.992 155.573 8.992C153.013 8.992 151.013 10.768 151.013 13.568C151.013 16.352 152.949 18.144 155.509 18.144C158.085 18.144 160.133 16.352 160.133 13.568ZM153.285 13.568C153.285 11.792 154.357 10.944 155.541 10.944C156.725 10.944 157.829 11.792 157.829 13.568C157.829 15.328 156.693 16.192 155.509 16.192C154.309 16.192 153.285 15.328 153.285 13.568Z" fill="#02897A"/>
<path d="M26 19.6H160.677V20.4H26V19.6Z" fill="#02897A"/>
<path fill-rule="evenodd" clip-rule="evenodd" d="M15.8516 10.5303C16.591 10.9653 16.591 12.0347 15.8516 12.4697L2.1954 20.5027C1.44543 20.9439 0.5 20.4031 0.5 19.533V3.46697C0.5 2.59688 1.44543 2.05614 2.1954 2.49729L15.8516 10.5303Z" fill="#02897A"/>
</g>
<defs>
<clipPath id="clip0_1_682">
<rect width="161" height="23" fill="white"/>
</clipPath>
</defs>
</svg>
